<svg id="visual" viewBox="0 0 960 540" width="960" height="540" xmlns="http://www.w3.org/2000/svg" xmlns:xlink="http://www.w3.org/1999/xlink" version="1.1"><path d="M0 216L240 125L480 146L720 211L960 159L960 541L720 541L480 541L240 541L0 541Z" fill="#b7d2fa"></path><path d="M0 286L240 186L480 289L720 296L960 297L960 541L720 541L480 541L240 541L0 541Z" fill="#8fb8fe"></path><path d="M0 309L240 318L480 262L720 338L960 336L960 541L720 541L480 541L240 541L0 541Z" fill="#689eff"></path><path d="M0 387L240 377L480 367L720 319L960 329L960 541L720 541L480 541L240 541L0 541Z" fill="#4282ff"></path><path d="M0 416L240 442L480 389L720 419L960 438L960 541L720 541L480 541L240 541L0 541Z" fill="#1c64fc"></path><path d="M0 463L240 504L480 443L720 471L960 474L960 541L720 541L480 541L240 541L0 541Z" fill="#0741f4"></path></svg>