<svg id="visual" viewBox="0 0 900 600" width="900" height="600" xmlns="http://www.w3.org/2000/svg" xmlns:xlink="http://www.w3.org/1999/xlink" version="1.1"><path d="M0 103L75 116C150 129 300 155 450 177C600 199 750 217 825 226L900 235L900 0L825 0C750 0 600 0 450 0C300 0 150 0 75 0L0 0Z" fill="#a067ff"></path><path d="M0 181L75 194C150 207 300 233 450 261C600 289 750 319 825 334L900 349L900 233L825 224C750 215 600 197 450 175C300 153 150 127 75 114L0 101Z" fill="#8642ff"></path><path d="M0 295L75 299C150 303 300 311 450 334C600 357 750 395 825 414L900 433L900 347L825 332C750 317 600 287 450 259C300 231 150 205 75 192L0 179Z" fill="#6600ff"></path><path d="M0 457L75 458C150 459 300 461 450 467C600 473 750 483 825 488L900 493L900 431L825 412C750 393 600 355 450 332C300 309 150 301 75 297L0 293Z" fill="#5802dc"></path><path d="M0 601L75 601C150 601 300 601 450 601C600 601 750 601 825 601L900 601L900 491L825 486C750 481 600 471 450 465C300 459 150 457 75 456L0 455Z" fill="#4b03ba"></path></svg>