<svg xmlns="http://www.w3.org/2000/svg" version="1.1" xmlns:xlink="http://www.w3.org/1999/xlink" xmlns:svgjs="http://svgjs.dev/svgjs" width="1440" height="560" preserveAspectRatio="none" viewBox="0 0 1440 560"><g mask="url(&quot;#SvgjsMask1002&quot;)" fill="none"><path d="M401 635.41C525.46 615.27 584.86 316.06 788.71 312.91 992.56 309.76 982.57 382.91 1176.43 382.91 1370.28 382.91 1465.64 313.19 1564.14 312.91" stroke="rgba(51,121,194,0.58)" stroke-width="2"></path><path d="M795.87 611.2C918.2 548.43 863.09 146.5 1087.92 145.18 1312.75 143.86 1511.97 402.4 1672.03 408.38" stroke="rgba(51,121,194,0.58)" stroke-width="2"></path><path d="M563.24 640.72C641.05 639.57 621.12 551.9 859.71 545.83 1098.3 539.76 1291.67 298.99 1452.66 293.83" stroke="rgba(51,121,194,0.58)" stroke-width="2"></path><path d="M423.1 588.39C513.62 587.13 495.19 484.58 768.58 479.93 1041.96 475.28 1276.63 242.55 1459.53 239.13" stroke="rgba(51,121,194,0.58)" stroke-width="2"></path><path d="M297.83 582.87C463.59 531.27 496.61 68.13 749.39 55.32 1002.16 42.51 975.17 125.32 1200.94 125.32 1426.72 125.32 1538.26 55.53 1652.5 55.32" stroke="rgba(51,121,194,0.58)" stroke-width="2"></path></g><defs><mask id="SvgjsMask1002"><rect width="1440" height="560" fill="#ffffff"></rect></mask></defs></svg>