<svg id="visual" viewBox="0 0 540 960" width="540" height="960" xmlns="http://www.w3.org/2000/svg" xmlns:xlink="http://www.w3.org/1999/xlink" version="1.1"><path d="M0 97L45 95.3C90 93.7 180 90.3 270 88.7C360 87 450 87 495 87L540 87L540 0L495 0C450 0 360 0 270 0C180 0 90 0 45 0L0 0Z" fill="#a067ff"></path><path d="M0 337L45 332.2C90 327.3 180 317.7 270 312.8C360 308 450 308 495 308L540 308L540 85L495 85C450 85 360 85 270 86.7C180 88.3 90 91.7 45 93.3L0 95Z" fill="#8c4aff"></path><path d="M0 452L45 447.2C90 442.3 180 432.7 270 427.8C360 423 450 423 495 423L540 423L540 306L495 306C450 306 360 306 270 310.8C180 315.7 90 325.3 45 330.2L0 335Z" fill="#7425ff"></path><path d="M0 606L45 602.8C90 599.7 180 593.3 270 588.5C360 583.7 450 580.3 495 578.7L540 577L540 421L495 421C450 421 360 421 270 425.8C180 430.7 90 440.3 45 445.2L0 450Z" fill="#6101f1"></path><path d="M0 855L45 855C90 855 180 855 270 855C360 855 450 855 495 855L540 855L540 575L495 576.7C450 578.3 360 581.7 270 586.5C180 591.3 90 597.7 45 600.8L0 604Z" fill="#5602d5"></path><path d="M0 961L45 961C90 961 180 961 270 961C360 961 450 961 495 961L540 961L540 853L495 853C450 853 360 853 270 853C180 853 90 853 45 853L0 853Z" fill="#4b03ba"></path></svg>