<svg id="visual" viewBox="0 0 450 900" width="450" height="900" xmlns="http://www.w3.org/2000/svg" xmlns:xlink="http://www.w3.org/1999/xlink" version="1.1"><path d="M0 91L37.5 89.5C75 88 150 85 225 83.5C300 82 375 82 412.5 82L450 82L450 0L412.5 0C375 0 300 0 225 0C150 0 75 0 37.5 0L0 0Z" fill="#a067ff"></path><path d="M0 316L37.5 311.5C75 307 150 298 225 293.5C300 289 375 289 412.5 289L450 289L450 80L412.5 80C375 80 300 80 225 81.5C150 83 75 86 37.5 87.5L0 89Z" fill="#8c4aff"></path><path d="M0 424L37.5 419.5C75 415 150 406 225 401.5C300 397 375 397 412.5 397L450 397L450 287L412.5 287C375 287 300 287 225 291.5C150 296 75 305 37.5 309.5L0 314Z" fill="#7425ff"></path><path d="M0 568L37.5 565C75 562 150 556 225 551.5C300 547 375 544 412.5 542.5L450 541L450 395L412.5 395C375 395 300 395 225 399.5C150 404 75 413 37.5 417.5L0 422Z" fill="#6101f1"></path><path d="M0 802L37.5 802C75 802 150 802 225 802C300 802 375 802 412.5 802L450 802L450 539L412.5 540.5C375 542 300 545 225 549.5C150 554 75 560 37.5 563L0 566Z" fill="#5602d5"></path><path d="M0 901L37.5 901C75 901 150 901 225 901C300 901 375 901 412.5 901L450 901L450 800L412.5 800C375 800 300 800 225 800C150 800 75 800 37.5 800L0 800Z" fill="#4b03ba"></path></svg>