<svg xmlns="http://www.w3.org/2000/svg" version="1.1" xmlns:xlink="http://www.w3.org/1999/xlink" xmlns:svgjs="http://svgjs.dev/svgjs" width="1440" height="250" preserveAspectRatio="none" viewBox="0 0 1440 250"><g mask="url(&quot;#SvgjsMask1103&quot;)" fill="none"><path d="M38 250L288 0L625.5 0L375.5 250z" fill="url(&quot;#SvgjsLinearGradient1104&quot;)"></path><path d="M268.6 250L518.6 0L845.6 0L595.6 250z" fill="url(&quot;#SvgjsLinearGradient1104&quot;)"></path><path d="M492.20000000000005 250L742.2 0L1085.7 0L835.7 250z" fill="url(&quot;#SvgjsLinearGradient1104&quot;)"></path><path d="M753.8000000000001 250L1003.8000000000001 0L1095.3000000000002 0L845.3000000000001 250z" fill="url(&quot;#SvgjsLinearGradient1104&quot;)"></path><path d="M1439 250L1189 0L1045 0L1295 250z" fill="url(&quot;#SvgjsLinearGradient1105&quot;)"></path><path d="M1197.4 250L947.4000000000001 0L623.4000000000001 0L873.4000000000001 250z" fill="url(&quot;#SvgjsLinearGradient1105&quot;)"></path><path d="M943.8 250L693.8 0L560.3 0L810.3 250z" fill="url(&quot;#SvgjsLinearGradient1105&quot;)"></path><path d="M694.1999999999999 250L444.19999999999993 0L108.19999999999993 0L358.19999999999993 250z" fill="url(&quot;#SvgjsLinearGradient1105&quot;)"></path><path d="M1252.776355035623 250L1440 62.77635503562297L1440 250z" fill="url(&quot;#SvgjsLinearGradient1104&quot;)"></path><path d="M0 250L187.22364496437703 250L 0 62.77635503562297z" fill="url(&quot;#SvgjsLinearGradient1105&quot;)"></path></g><defs><mask id="SvgjsMask1103"><rect width="1440" height="250" fill="#ffffff"></rect></mask><linearGradient x1="0%" y1="100%" x2="100%" y2="0%" id="SvgjsLinearGradient1104"><stop stop-color="rgba(15, 70, 185, 0.2)" offset="0"></stop><stop stop-opacity="0" stop-color="rgba(15, 70, 185, 0.2)" offset="0.66"></stop></linearGradient><linearGradient x1="100%" y1="100%" x2="0%" y2="0%" id="SvgjsLinearGradient1105"><stop stop-color="rgba(15, 70, 185, 0.2)" offset="0"></stop><stop stop-opacity="0" stop-color="rgba(15, 70, 185, 0.2)" offset="0.66"></stop></linearGradient></defs></svg>