<svg id="visual" viewBox="0 0 960 540" width="960" height="540" xmlns="http://www.w3.org/2000/svg" xmlns:xlink="http://www.w3.org/1999/xlink" version="1.1"><path d="M0 55L80 54.2C160 53.3 320 51.7 480 50.8C640 50 800 50 880 50L960 50L960 0L880 0C800 0 640 0 480 0C320 0 160 0 80 0L0 0Z" fill="#a067ff"></path><path d="M0 190L80 187.3C160 184.7 320 179.3 480 176.7C640 174 800 174 880 174L960 174L960 48L880 48C800 48 640 48 480 48.8C320 49.7 160 51.3 80 52.2L0 53Z" fill="#8c4aff"></path><path d="M0 255L80 252.3C160 249.7 320 244.3 480 241.7C640 239 800 239 880 239L960 239L960 172L880 172C800 172 640 172 480 174.7C320 177.3 160 182.7 80 185.3L0 188Z" fill="#7425ff"></path><path d="M0 341L80 339.2C160 337.3 320 333.7 480 331C640 328.3 800 326.7 880 325.8L960 325L960 237L880 237C800 237 640 237 480 239.7C320 242.3 160 247.7 80 250.3L0 253Z" fill="#6101f1"></path><path d="M0 482L80 482C160 482 320 482 480 482C640 482 800 482 880 482L960 482L960 323L880 323.8C800 324.7 640 326.3 480 329C320 331.7 160 335.3 80 337.2L0 339Z" fill="#5602d5"></path><path d="M0 541L80 541C160 541 320 541 480 541C640 541 800 541 880 541L960 541L960 480L880 480C800 480 640 480 480 480C320 480 160 480 80 480L0 480Z" fill="#4b03ba"></path></svg>